<svg width="1918" height="2715" viewBox="0 0 1918 2715" fill="none" xmlns="http://www.w3.org/2000/svg">
<path d="M0 174.927L128.411 0L375.889 181.669L247.478 356.596L0 174.927Z" fill="#7654B4"/>
<path d="M171.709 67.7591L0 174.927L246.672 356.005L424.024 252.979L171.709 67.7591Z" fill="#9C80CF"/>
<path d="M1493.53 1147.01L1621.94 972.079L1869.42 1153.75L1741.01 1328.68L1493.53 1147.01Z" fill="#7654B4"/>
<path d="M1665.24 1039.84L1493.53 1147.01L1740.2 1328.08L1917.55 1225.06L1665.24 1039.84Z" fill="#9C80CF"/>
<path d="M1323 1060.5L1247.29 921.541L1443.82 814.395L1519.53 953.354L1323 1060.5Z" fill="#7654B4"/>
<path d="M1305.42 913.936L1323 1060.5L1518.89 953.703L1505.79 804.696L1305.42 913.936Z" fill="#9C80CF"/>
<path d="M540.826 263.755L695.501 297L648.483 515.899L493.809 482.653L540.826 263.755Z" fill="#7654B4"/>
<path d="M663.344 346.034L540.826 263.755L493.962 481.94L615.407 569.211L663.344 346.034Z" fill="#9C80CF"/>
<path d="M746.241 535.472L789.702 476.227L873.462 537.755L830.001 597L746.241 535.472Z" fill="#7654B4"/>
<path d="M804.356 499.175L746.241 535.472L829.728 596.799L889.753 561.906L804.356 499.175Z" fill="#9C80CF"/>
<path d="M1216.12 702.79L1287.93 718.229L1266.1 819.884L1194.3 804.446L1216.12 702.79Z" fill="#7654B4"/>
<path d="M1273 741L1216.12 702.79L1194.37 804.114L1250.75 844.642L1273 741Z" fill="#9C80CF"/>
<path d="M0 2539.75L128.411 2714.68L375.889 2533.01L247.478 2358.08L0 2539.75Z" fill="#7654B4"/>
<path d="M171.709 2646.92L0 2539.75L246.672 2358.67L424.024 2461.7L171.709 2646.92Z" fill="#9C80CF"/>
<path d="M1493.53 1567.67L1621.94 1742.6L1869.42 1560.93L1741.01 1386L1493.53 1567.67Z" fill="#7654B4"/>
<path d="M1665.24 1674.84L1493.53 1567.67L1740.2 1386.59L1917.55 1489.62L1665.24 1674.84Z" fill="#9C80CF"/>
<path d="M1323 1654.18L1247.29 1793.13L1443.82 1900.28L1519.53 1761.32L1323 1654.18Z" fill="#7654B4"/>
<path d="M1305.42 1800.74L1323 1654.18L1518.89 1760.97L1505.79 1909.98L1305.42 1800.74Z" fill="#9C80CF"/>
<path d="M540.826 2450.92L695.501 2417.68L648.483 2198.78L493.809 2232.02L540.826 2450.92Z" fill="#7654B4"/>
<path d="M663.344 2368.64L540.826 2450.92L493.962 2232.73L615.407 2145.46L663.344 2368.64Z" fill="#9C80CF"/>
<path d="M746.241 2179.2L789.702 2238.45L873.462 2176.92L830.001 2117.68L746.241 2179.2Z" fill="#7654B4"/>
<path d="M804.356 2215.5L746.241 2179.2L829.728 2117.88L889.753 2152.77L804.356 2215.5Z" fill="#9C80CF"/>
<path d="M1216.12 2011.89L1287.93 1996.45L1266.1 1894.79L1194.3 1910.23L1216.12 2011.89Z" fill="#7654B4"/>
<path d="M1273 1973.68L1216.12 2011.89L1194.37 1910.56L1250.75 1870.03L1273 1973.68Z" fill="#9C80CF"/>
</svg>
