<svg width="2109" height="5582" viewBox="0 0 2109 5582" fill="none" xmlns="http://www.w3.org/2000/svg">
<path d="M80.4766 3031.53L208.888 2856.61L456.366 3038.28L327.955 3213.2L80.4766 3031.53Z" fill="#7654B4"/>
<path d="M252.185 2924.37L80.4766 3031.53L327.148 3212.61L504.5 3109.59L252.185 2924.37Z" fill="#9C80CF"/>
<path d="M1574.01 4003.61L1702.42 3828.69L1949.9 4010.35L1821.49 4185.28L1574.01 4003.61Z" fill="#7654B4"/>
<path d="M1745.72 3896.44L1574.01 4003.61L1820.68 4184.69L1998.03 4081.66L1745.72 3896.44Z" fill="#9C80CF"/>
<path d="M1353.07 4015.22L1249.22 3824.68L1518.78 3677.76L1622.63 3868.3L1353.07 4015.22Z" fill="#7654B4"/>
<path d="M1328.95 3814.25L1353.07 4015.22L1621.75 3868.78L1603.78 3664.46L1328.95 3814.25Z" fill="#9C80CF"/>
<path d="M713.726 3064L925.883 3109.58L861.392 3409.73L649.234 3364.15L713.726 3064Z" fill="#7654B4"/>
<path d="M881.775 3176.82L713.726 3064L649.444 3363.17L816.023 3482.83L881.775 3176.82Z" fill="#9C80CF"/>
<path d="M0.111328 5406.2L128.522 5581.13L376 5399.46L247.589 5224.54L0.111328 5406.2Z" fill="#7654B4"/>
<path d="M171.82 5513.37L0.111328 5406.2L246.783 5225.13L424.135 5328.15L171.82 5513.37Z" fill="#9C80CF"/>
<path d="M1605.01 4572.67L1733.42 4747.6L1980.9 4565.93L1852.48 4391L1605.01 4572.67Z" fill="#7654B4"/>
<path d="M1776.72 4679.84L1605.01 4572.67L1851.68 4391.59L2029.03 4494.62L1776.72 4679.84Z" fill="#9C80CF"/>
<path d="M1384.07 4561.06L1280.22 4751.6L1549.78 4898.52L1653.63 4707.98L1384.07 4561.06Z" fill="#7654B4"/>
<path d="M1359.95 4762.03L1384.07 4561.06L1652.75 4707.5L1634.78 4911.82L1359.95 4762.03Z" fill="#9C80CF"/>
<path d="M744.726 5512.28L956.884 5466.7L892.393 5166.55L680.235 5212.13L744.726 5512.28Z" fill="#7654B4"/>
<path d="M912.776 5399.46L744.726 5512.28L680.445 5213.11L847.024 5093.45L912.776 5399.46Z" fill="#9C80CF"/>
<path d="M160.365 174.927L288.776 0L536.254 181.669L407.843 356.596L160.365 174.927Z" fill="#7654B4"/>
<path d="M332.074 67.7591L160.365 174.927L407.037 356.005L584.389 252.979L332.074 67.7591Z" fill="#9C80CF"/>
<path d="M1653.9 1147.01L1782.31 972.079L2029.78 1153.75L1901.37 1328.68L1653.9 1147.01Z" fill="#7654B4"/>
<path d="M1825.6 1039.84L1653.9 1147.01L1900.57 1328.08L2077.92 1225.06L1825.6 1039.84Z" fill="#9C80CF"/>
<path d="M1432.96 1158.61L1329.11 968.073L1598.67 821.156L1702.52 1011.69L1432.96 1158.61Z" fill="#7654B4"/>
<path d="M1408.84 957.645L1432.96 1158.61L1701.64 1012.17L1683.67 807.857L1408.84 957.645Z" fill="#9C80CF"/>
<path d="M793.614 207.393L1005.77 252.978L941.281 553.128L729.123 507.543L793.614 207.393Z" fill="#7654B4"/>
<path d="M961.664 320.213L793.614 207.393L729.333 506.565L895.912 626.228L961.664 320.213Z" fill="#9C80CF"/>
<path d="M80 2549.6L208.411 2724.53L455.889 2542.86L327.478 2367.93L80 2549.6Z" fill="#7654B4"/>
<path d="M251.709 2656.77L80 2549.6L326.672 2368.52L504.024 2471.55L251.709 2656.77Z" fill="#9C80CF"/>
<path d="M1684.9 1716.06L1813.31 1890.99L2060.78 1709.32L1932.37 1534.39L1684.9 1716.06Z" fill="#7654B4"/>
<path d="M1856.6 1823.23L1684.9 1716.06L1931.57 1534.99L2108.92 1638.01L1856.6 1823.23Z" fill="#9C80CF"/>
<path d="M1463.96 1704.46L1360.11 1895L1629.67 2041.91L1733.52 1851.37L1463.96 1704.46Z" fill="#7654B4"/>
<path d="M1439.84 1905.42L1463.96 1704.46L1732.64 1850.9L1714.67 2055.21L1439.84 1905.42Z" fill="#9C80CF"/>
<path d="M824.615 2655.68L1036.77 2610.09L972.281 2309.94L760.123 2355.53L824.615 2655.68Z" fill="#7654B4"/>
<path d="M992.665 2542.86L824.615 2655.68L760.333 2356.5L926.913 2236.84L992.665 2542.86Z" fill="#9C80CF"/>
</svg>
