<svg width="1920" height="2439" viewBox="0 0 1920 2439" fill="none" xmlns="http://www.w3.org/2000/svg">
<path d="M-31 223.614L97.411 48.6865L344.889 230.356L216.478 405.283L-31 223.614Z" fill="#7654B4"/>
<path d="M140.709 116.446L-31 223.614L215.672 404.691L393.024 301.665L140.709 116.446Z" fill="#9C80CF"/>
<path d="M1545 929.614L1673.41 754.687L1920.89 936.356L1792.48 1111.28L1545 929.614Z" fill="#7654B4"/>
<path d="M1716.71 822.446L1545 929.614L1791.67 1110.69L1969.02 1007.67L1716.71 822.446Z" fill="#9C80CF"/>
<path d="M1324.06 941.219L1220.21 750.68L1489.78 603.763L1593.62 794.301L1324.06 941.219Z" fill="#7654B4"/>
<path d="M1299.94 740.252L1324.06 941.219L1592.74 794.78L1574.78 590.464L1299.94 740.252Z" fill="#9C80CF"/>
<path d="M684.72 -10L896.878 35.5851L832.386 335.735L620.228 290.15L684.72 -10Z" fill="#7654B4"/>
<path d="M852.77 102.82L684.72 -10L620.438 289.172L787.018 408.835L852.77 102.82Z" fill="#9C80CF"/>
<path d="M70.3823 558.312L285.957 533.482L321.085 838.466L105.51 863.296L70.3823 558.312Z" fill="#7654B4"/>
<path d="M265.729 611.308L70.3823 558.312L105.396 862.302L301.544 922.252L265.729 611.308Z" fill="#9C80CF"/>
<path d="M0 2204.67L128.411 2379.6L375.889 2197.93L247.478 2023L0 2204.67Z" fill="#7654B4"/>
<path d="M171.709 2311.84L0 2204.67L246.672 2023.59L424.024 2126.62L171.709 2311.84Z" fill="#9C80CF"/>
<path d="M1576 1498.67L1704.41 1673.6L1951.89 1491.93L1823.48 1317L1576 1498.67Z" fill="#7654B4"/>
<path d="M1747.71 1605.84L1576 1498.67L1822.67 1317.59L2000.02 1420.62L1747.71 1605.84Z" fill="#9C80CF"/>
<path d="M1355.06 1487.06L1251.21 1677.6L1520.78 1824.52L1624.62 1633.98L1355.06 1487.06Z" fill="#7654B4"/>
<path d="M1330.94 1688.03L1355.06 1487.06L1623.74 1633.5L1605.78 1837.82L1330.94 1688.03Z" fill="#9C80CF"/>
<path d="M715.72 2438.28L927.878 2392.7L863.386 2092.55L651.228 2138.13L715.72 2438.28Z" fill="#7654B4"/>
<path d="M883.77 2325.46L715.72 2438.28L651.438 2139.11L818.018 2019.45L883.77 2325.46Z" fill="#9C80CF"/>
<path d="M101.382 1869.97L316.957 1894.8L352.085 1589.82L136.51 1564.99L101.382 1869.97Z" fill="#7654B4"/>
<path d="M296.729 1816.98L101.382 1869.97L136.396 1565.98L332.544 1506.03L296.729 1816.98Z" fill="#9C80CF"/>
</svg>
