<svg width="532" height="819" viewBox="0 0 532 819" fill="none" xmlns="http://www.w3.org/2000/svg">
<g filter="url(#filter0_d_414_1229)">
<g clip-path="url(#clip0_414_1229)">
<rect y="69.5" width="512" height="729" rx="25" fill="#C4C4C4"/>
</g>
</g>
<path d="M161.25 408.188L161.531 412.094C163.948 409.073 167.188 407.562 171.25 407.562C174.833 407.562 177.5 408.615 179.25 410.719C181 412.823 181.896 415.969 181.938 420.156V442H172.906V420.375C172.906 418.458 172.49 417.073 171.656 416.219C170.823 415.344 169.438 414.906 167.5 414.906C164.958 414.906 163.052 415.99 161.781 418.156V442H152.75V408.188H161.25ZM209.062 438.562C206.833 441.271 203.75 442.625 199.812 442.625C196.188 442.625 193.417 441.583 191.5 439.5C189.604 437.417 188.635 434.365 188.594 430.344V408.188H197.625V430.031C197.625 433.552 199.229 435.312 202.438 435.312C205.5 435.312 207.604 434.25 208.75 432.125V408.188H217.812V442H209.312L209.062 438.562ZM227.094 442V414.812H222.062V408.188H227.094V405.312C227.094 401.521 228.177 398.583 230.344 396.5C232.531 394.396 235.583 393.344 239.5 393.344C240.75 393.344 242.281 393.552 244.094 393.969L244 400.969C243.25 400.781 242.333 400.688 241.25 400.688C237.854 400.688 236.156 402.281 236.156 405.469V408.188H247.281V406.625C247.323 402.375 248.625 399.104 251.188 396.812C253.771 394.5 257.406 393.344 262.094 393.344C264.885 393.344 268.312 393.958 272.375 395.188L271.062 402.656C269.021 402.052 267.427 401.667 266.281 401.5C265.156 401.312 263.948 401.219 262.656 401.219C258.448 401.219 256.344 403.083 256.344 406.812V408.188H263V414.812H256.344V442H247.281V414.812H236.156V442H227.094ZM276.562 442H267.5V408.188H276.562V442ZM292.375 408.188L292.656 412.094C295.073 409.073 298.312 407.562 302.375 407.562C305.958 407.562 308.625 408.615 310.375 410.719C312.125 412.823 313.021 415.969 313.062 420.156V442H304.031V420.375C304.031 418.458 303.615 417.073 302.781 416.219C301.948 415.344 300.562 414.906 298.625 414.906C296.083 414.906 294.177 415.99 292.906 418.156V442H283.875V408.188H292.375ZM318.625 424.844C318.625 419.656 319.854 415.479 322.312 412.312C324.792 409.146 328.125 407.562 332.312 407.562C336.021 407.562 338.906 408.833 340.969 411.375L341.344 408.188H349.531V440.875C349.531 443.833 348.854 446.406 347.5 448.594C346.167 450.781 344.281 452.448 341.844 453.594C339.406 454.74 336.552 455.312 333.281 455.312C330.802 455.312 328.385 454.812 326.031 453.812C323.677 452.833 321.896 451.562 320.688 450L324.688 444.5C326.938 447.021 329.667 448.281 332.875 448.281C335.271 448.281 337.135 447.635 338.469 446.344C339.802 445.073 340.469 443.26 340.469 440.906V439.094C338.385 441.448 335.646 442.625 332.25 442.625C328.188 442.625 324.896 441.042 322.375 437.875C319.875 434.688 318.625 430.469 318.625 425.219V424.844ZM327.656 425.5C327.656 428.562 328.271 430.969 329.5 432.719C330.729 434.448 332.417 435.312 334.562 435.312C337.312 435.312 339.281 434.281 340.469 432.219V418C339.26 415.938 337.312 414.906 334.625 414.906C332.458 414.906 330.75 415.792 329.5 417.562C328.271 419.333 327.656 421.979 327.656 425.5ZM372.875 437.562C372.875 436.125 373.354 434.958 374.312 434.062C375.292 433.167 376.51 432.719 377.969 432.719C379.448 432.719 380.667 433.167 381.625 434.062C382.604 434.958 383.094 436.125 383.094 437.562C383.094 438.979 382.615 440.135 381.656 441.031C380.698 441.906 379.469 442.344 377.969 442.344C376.49 442.344 375.271 441.906 374.312 441.031C373.354 440.135 372.875 438.979 372.875 437.562ZM372.875 411.969C372.875 410.531 373.354 409.365 374.312 408.469C375.292 407.573 376.51 407.125 377.969 407.125C379.448 407.125 380.667 407.573 381.625 408.469C382.604 409.365 383.094 410.531 383.094 411.969C383.094 413.385 382.615 414.542 381.656 415.438C380.698 416.312 379.469 416.75 377.969 416.75C376.49 416.75 375.271 416.312 374.312 415.438C373.354 414.542 372.875 413.385 372.875 411.969ZM390.906 423.5C390.906 418.729 391.542 414.188 392.812 409.875C394.083 405.562 395.958 401.75 398.438 398.438C400.917 395.104 403.604 392.792 406.5 391.5L408.25 396.375C405.208 398.625 402.833 402.104 401.125 406.812C399.417 411.521 398.562 417.021 398.562 423.312V424.281C398.562 430.594 399.406 436.115 401.094 440.844C402.781 445.573 405.167 449.104 408.25 451.438L406.5 456.219C403.667 454.948 401.021 452.698 398.562 449.469C396.125 446.26 394.26 442.552 392.969 438.344C391.677 434.135 390.99 429.74 390.906 425.156V423.5Z" fill="white"/>
<defs>
<filter id="filter0_d_414_1229" x="0" y="0" width="532" height="818.5" filterUnits="userSpaceOnUse" color-interpolation-filters="sRGB">
<feFlood flood-opacity="0" result="BackgroundImageFix"/>
<feColorMatrix in="SourceAlpha" type="matrix" values="0 0 0 0 0 0 0 0 0 0 0 0 0 0 0 0 0 0 127 0" result="hardAlpha"/>
<feOffset dx="10" dy="10"/>
<feGaussianBlur stdDeviation="5"/>
<feComposite in2="hardAlpha" operator="out"/>
<feColorMatrix type="matrix" values="0 0 0 0 0 0 0 0 0 0 0 0 0 0 0 0 0 0 0.25 0"/>
<feBlend mode="normal" in2="BackgroundImageFix" result="effect1_dropShadow_414_1229"/>
<feBlend mode="normal" in="SourceGraphic" in2="effect1_dropShadow_414_1229" result="shape"/>
</filter>
<clipPath id="clip0_414_1229">
<path d="M0 25C0 11.1929 11.1929 0 25 0H487C500.807 0 512 11.1929 512 25V773.5C512 787.307 500.807 798.5 487 798.5H25C11.1929 798.5 0 787.307 0 773.5V25Z" fill="white"/>
</clipPath>
</defs>
</svg>
