<svg width="512" height="729" viewBox="0 0 512 729" fill="none" xmlns="http://www.w3.org/2000/svg">
<rect width="512" height="729" rx="25" fill="#C4C4C4"/>
<path d="M138.25 330.188L138.531 334.094C140.948 331.073 144.188 329.562 148.25 329.562C151.833 329.562 154.5 330.615 156.25 332.719C158 334.823 158.896 337.969 158.938 342.156V364H149.906V342.375C149.906 340.458 149.49 339.073 148.656 338.219C147.823 337.344 146.438 336.906 144.5 336.906C141.958 336.906 140.052 337.99 138.781 340.156V364H129.75V330.188H138.25ZM186.062 360.562C183.833 363.271 180.75 364.625 176.812 364.625C173.188 364.625 170.417 363.583 168.5 361.5C166.604 359.417 165.635 356.365 165.594 352.344V330.188H174.625V352.031C174.625 355.552 176.229 357.312 179.438 357.312C182.5 357.312 184.604 356.25 185.75 354.125V330.188H194.812V364H186.312L186.062 360.562ZM204.094 364V336.812H199.062V330.188H204.094V327.312C204.094 323.521 205.177 320.583 207.344 318.5C209.531 316.396 212.583 315.344 216.5 315.344C217.75 315.344 219.281 315.552 221.094 315.969L221 322.969C220.25 322.781 219.333 322.688 218.25 322.688C214.854 322.688 213.156 324.281 213.156 327.469V330.188H224.281V328.625C224.323 324.375 225.625 321.104 228.188 318.812C230.771 316.5 234.406 315.344 239.094 315.344C241.885 315.344 245.312 315.958 249.375 317.188L248.062 324.656C246.021 324.052 244.427 323.667 243.281 323.5C242.156 323.312 240.948 323.219 239.656 323.219C235.448 323.219 233.344 325.083 233.344 328.812V330.188H240V336.812H233.344V364H224.281V336.812H213.156V364H204.094ZM253.562 364H244.5V330.188H253.562V364ZM269.375 330.188L269.656 334.094C272.073 331.073 275.312 329.562 279.375 329.562C282.958 329.562 285.625 330.615 287.375 332.719C289.125 334.823 290.021 337.969 290.062 342.156V364H281.031V342.375C281.031 340.458 280.615 339.073 279.781 338.219C278.948 337.344 277.562 336.906 275.625 336.906C273.083 336.906 271.177 337.99 269.906 340.156V364H260.875V330.188H269.375ZM295.625 346.844C295.625 341.656 296.854 337.479 299.312 334.312C301.792 331.146 305.125 329.562 309.312 329.562C313.021 329.562 315.906 330.833 317.969 333.375L318.344 330.188H326.531V362.875C326.531 365.833 325.854 368.406 324.5 370.594C323.167 372.781 321.281 374.448 318.844 375.594C316.406 376.74 313.552 377.312 310.281 377.312C307.802 377.312 305.385 376.812 303.031 375.812C300.677 374.833 298.896 373.562 297.688 372L301.688 366.5C303.938 369.021 306.667 370.281 309.875 370.281C312.271 370.281 314.135 369.635 315.469 368.344C316.802 367.073 317.469 365.26 317.469 362.906V361.094C315.385 363.448 312.646 364.625 309.25 364.625C305.188 364.625 301.896 363.042 299.375 359.875C296.875 356.688 295.625 352.469 295.625 347.219V346.844ZM304.656 347.5C304.656 350.562 305.271 352.969 306.5 354.719C307.729 356.448 309.417 357.312 311.562 357.312C314.312 357.312 316.281 356.281 317.469 354.219V340C316.26 337.938 314.312 336.906 311.625 336.906C309.458 336.906 307.75 337.792 306.5 339.562C305.271 341.333 304.656 343.979 304.656 347.5ZM349.875 359.562C349.875 358.125 350.354 356.958 351.312 356.062C352.292 355.167 353.51 354.719 354.969 354.719C356.448 354.719 357.667 355.167 358.625 356.062C359.604 356.958 360.094 358.125 360.094 359.562C360.094 360.979 359.615 362.135 358.656 363.031C357.698 363.906 356.469 364.344 354.969 364.344C353.49 364.344 352.271 363.906 351.312 363.031C350.354 362.135 349.875 360.979 349.875 359.562ZM349.875 333.969C349.875 332.531 350.354 331.365 351.312 330.469C352.292 329.573 353.51 329.125 354.969 329.125C356.448 329.125 357.667 329.573 358.625 330.469C359.604 331.365 360.094 332.531 360.094 333.969C360.094 335.385 359.615 336.542 358.656 337.438C357.698 338.312 356.469 338.75 354.969 338.75C353.49 338.75 352.271 338.312 351.312 337.438C350.354 336.542 349.875 335.385 349.875 333.969ZM367.906 345.5C367.906 340.729 368.542 336.188 369.812 331.875C371.083 327.562 372.958 323.75 375.438 320.438C377.917 317.104 380.604 314.792 383.5 313.5L385.25 318.375C382.208 320.625 379.833 324.104 378.125 328.812C376.417 333.521 375.562 339.021 375.562 345.312V346.281C375.562 352.594 376.406 358.115 378.094 362.844C379.781 367.573 382.167 371.104 385.25 373.438L383.5 378.219C380.667 376.948 378.021 374.698 375.562 371.469C373.125 368.26 371.26 364.552 369.969 360.344C368.677 356.135 367.99 351.74 367.906 347.156V345.5Z" fill="white"/>
</svg>
