<svg width="116" height="70" viewBox="0 0 116 70" fill="none" xmlns="http://www.w3.org/2000/svg">
<path d="M38.555 24.3585C35.2429 24.844 32.1717 27.2085 31.564 30.749C31.4597 31.4484 31.4201 32.1048 31.5136 32.7395C31.9398 35.6506 34.2719 37.5656 36.5232 39.6281C38.3752 41.3039 40.078 42.6615 40.3729 44.6682C40.7703 47.3797 38.6342 49.3667 36.4584 49.6867C34.0454 50.005 31.9326 48.8794 31.6161 46.4987C31.6251 46.3279 31.6017 46.1606 31.582 46.0258C31.3014 44.118 29.9025 43.4347 28.5971 43.6271C27.2593 43.8231 26.0294 44.9936 26.3045 46.8691C26.9176 52.2131 32.107 54.9732 37.1597 54.2324C42.5145 53.4466 46.7473 48.5198 45.9921 43.3664C45.4814 39.8852 42.7806 37.5477 40.4053 35.5715L39.9396 35.1957C38.4669 34.0108 37.2424 32.6514 37.0608 31.4143C36.845 29.9416 38.4579 29.0551 39.2329 28.976C40.2794 28.8897 41.1246 29.5191 41.86 30.5728C42.4462 31.5473 43.3848 31.8872 44.2892 31.7541C45.494 31.5779 46.5657 30.4972 46.3409 28.958C46.2905 28.6236 46.2132 28.3287 46.0586 27.9745C44.906 25.4769 41.9697 23.8568 38.555 24.3585Z" fill="#16896D" fill-opacity="0.7686"/>
<path d="M65.3922 36.0433L64.0544 36.2392L66.6689 23.0717C66.9619 19.7146 62.0495 19.5456 61.3824 22.6851L58.5665 37.0448L53.5138 37.7856L56.8619 26.1177C57.556 22.6994 52.5195 22.3794 51.8326 25.6232L47.9936 39.0731C47.6646 40.3174 47.2276 43.8686 51.3094 43.2699L57.5344 42.3564L56.2128 48.7379C55.4846 52.1597 60.6901 52.6956 61.4471 49.2342L63.0169 41.5185L64.824 41.2542C68.2692 40.7489 67.8017 35.6908 65.3922 36.0433Z" fill="#16896D" fill-opacity="0.7686"/>
<path d="M96.1734 16.5922L81.4163 18.7571C79.5103 19.0358 78.8738 20.2909 79.0302 21.3626C79.1777 22.3659 80.0551 23.229 81.2599 23.051L83.2684 22.7579L82.0169 28.4435L80.4777 28.6701C78.6706 28.9344 77.9621 30.1661 78.1204 31.2378C78.2714 32.2753 79.2226 33.16 80.8283 32.9244L81.1628 32.8759L79.834 39.4282C79.1579 42.7404 77.9064 43.5387 76.1676 43.794C74.9629 43.9721 74.0081 43.2906 73.5891 42.5318C73.6215 42.2872 73.6215 42.0481 73.5873 41.8143C73.3608 40.2751 71.8521 39.5397 70.5467 39.7303C69.2089 39.9281 68.0078 41.0609 68.3206 43.2025C68.7881 46.3815 72.4275 49.0607 76.8113 48.417C80.2583 47.9117 83.4068 45.8439 84.5288 40.2104C84.9874 37.7506 85.6509 34.5769 86.1436 32.1117L88.152 31.8168C90.1929 31.5183 90.824 30.2291 90.6622 29.125C90.5202 28.154 89.747 27.3107 88.7436 27.4582L87.003 27.7135L88.0873 22.0512L95.9505 20.8986C97.8133 20.5552 98.4606 19.3667 98.3024 18.2968C98.1568 17.2934 97.3116 16.4249 96.1734 16.5922Z" fill="#16896D" fill-opacity="0.7686"/>
<path d="M37.6068 23.4537C34.2947 23.9392 31.2235 26.3038 30.6157 29.8442C30.5114 30.5437 30.4719 31.2 30.5654 31.8348C30.9915 34.7459 33.3237 36.6609 35.5749 38.7233C37.427 40.3992 39.1298 41.7568 39.4247 43.7635C39.8221 46.475 37.6859 48.4619 35.5102 48.782C33.0971 49.1003 30.9843 47.9746 30.6679 45.5939C30.6769 45.4231 30.6535 45.2559 30.6337 45.121C30.3532 43.2132 28.9543 42.5299 27.6488 42.7223C26.311 42.9183 25.0811 44.0889 25.3562 45.9643C25.9694 51.3083 31.1588 54.0684 36.2115 53.3276C41.5662 52.5418 45.799 47.615 45.0438 42.4616C44.5331 38.9805 41.8324 36.6429 39.4571 34.6668L38.9913 34.291C37.5187 33.106 36.2942 31.7466 36.1126 30.5095C35.8968 29.0369 37.5097 28.1504 38.2847 28.0713C39.3312 27.985 40.1763 28.6143 40.9117 29.668C41.4979 30.6426 42.4365 30.9825 43.341 30.8494C44.5457 30.6732 45.6174 29.5925 45.3926 28.0533C45.3423 27.7189 45.265 27.424 45.1103 27.0698C43.9577 24.5722 41.0214 22.9521 37.6068 23.4537Z" fill="#F99621"/>
<path d="M64.444 35.1385L63.1062 35.3345L65.7206 22.1669C66.0137 18.8099 61.1013 18.6408 60.4342 21.7803L57.6183 36.1401L52.5656 36.8809L55.9137 25.2129C56.6078 21.7947 51.5712 21.4747 50.8844 24.7185L47.0454 38.1684C46.7163 39.4127 46.2794 42.9639 50.3611 42.3652L56.5862 41.4517L55.2646 47.8332C54.5363 51.255 59.7419 51.7909 60.4989 48.3295L62.0686 40.6138L63.8758 40.3495C67.3209 39.8442 66.8534 34.7861 64.444 35.1385Z" fill="#F99621"/>
<path d="M95.2252 15.6874L80.4681 17.8524C78.5621 18.1311 77.9255 19.3862 78.082 20.4578C78.2294 21.4612 79.1069 22.3243 80.3116 22.1463L82.3201 21.8532L81.0686 27.5388L79.5294 27.7654C77.7223 28.0297 77.0139 29.2614 77.1721 30.3331C77.3232 31.3706 78.2744 32.2553 79.8801 32.0197L80.2145 31.9712L78.8857 38.5235C78.2096 41.8356 76.9581 42.634 75.2194 42.8893C74.0146 43.0673 73.0598 42.3859 72.6409 41.627C72.6732 41.3825 72.6732 41.1434 72.6391 40.9096C72.4125 39.3704 70.9039 38.635 69.5985 38.8256C68.2607 39.0234 67.0595 40.1562 67.3724 42.2977C67.8399 45.4768 71.4793 48.156 75.8631 47.5123C79.3101 47.007 82.4586 44.9392 83.5806 39.3057C84.0391 36.8459 84.7026 33.6722 85.1953 31.207L87.2038 30.9121C89.2446 30.6136 89.8758 29.3243 89.714 28.2203C89.5719 27.2493 88.7987 26.406 87.7954 26.5534L86.0548 26.8088L87.1391 21.1465L95.0022 19.9939C96.8651 19.6505 97.5124 18.4619 97.3541 17.3921C97.2085 16.3887 96.3634 15.5202 95.2252 15.6874Z" fill="#F99621"/>
</svg>
