<svg width="1920" height="1112" viewBox="0 0 1920 1112" fill="none" xmlns="http://www.w3.org/2000/svg">
<path d="M-31 223.614L97.411 48.6865L344.889 230.356L216.478 405.283L-31 223.614Z" fill="#7654B4"/>
<path d="M140.709 116.446L-31 223.614L215.672 404.691L393.024 301.665L140.709 116.446Z" fill="#9C80CF"/>
<path d="M1545 929.614L1673.41 754.687L1920.89 936.356L1792.48 1111.28L1545 929.614Z" fill="#7654B4"/>
<path d="M1716.71 822.446L1545 929.614L1791.67 1110.69L1969.02 1007.67L1716.71 822.446Z" fill="#9C80CF"/>
<path d="M1324.06 941.219L1220.21 750.68L1489.78 603.763L1593.62 794.301L1324.06 941.219Z" fill="#7654B4"/>
<path d="M1299.94 740.252L1324.06 941.219L1592.74 794.78L1574.78 590.464L1299.94 740.252Z" fill="#9C80CF"/>
<path d="M684.72 -10L896.878 35.5851L832.386 335.735L620.228 290.15L684.72 -10Z" fill="#7654B4"/>
<path d="M852.77 102.82L684.72 -10L620.438 289.172L787.018 408.835L852.77 102.82Z" fill="#9C80CF"/>
<path d="M70.3823 558.312L285.957 533.482L321.085 838.466L105.51 863.296L70.3823 558.312Z" fill="#7654B4"/>
<path d="M265.729 611.308L70.3823 558.312L105.396 862.302L301.544 922.252L265.729 611.308Z" fill="#9C80CF"/>
</svg>
